<!DOCTYPE svg PUBLIC "-//W3C//DTD SVG 1.1//EN" "http://www.w3.org/Graphics/SVG/1.1/DTD/svg11.dtd">
<!-- Uploaded to: SVG Repo, www.svgrepo.com, Transformed by: SVG Repo Mixer Tools -->
<svg width="800px" height="800px" viewBox="-51.2 -51.2 614.40 614.40" version="1.1" xmlns="http://www.w3.org/2000/svg" xmlns:xlink="http://www.w3.org/1999/xlink" fill="#c04544">
<g id="SVGRepo_bgCarrier" stroke-width="0" transform="translate(64,64), scale(0.75)">
<rect x="-51.2" y="-51.2" width="614.40" height="614.40" rx="0" fill="#ffffff" strokewidth="0"/>
</g>
<g id="SVGRepo_tracerCarrier" stroke-linecap="round" stroke-linejoin="round"/>
<g id="SVGRepo_iconCarrier"> <title>image-filled</title> <g id="Page-1" stroke="none" stroke-width="1" fill="none" fill-rule="evenodd"> <g id="icon" fill="#c04544" transform="translate(64.000000, 64.000000)"> <path d="M384,1.42108547e-14 L384,384 L1.42108547e-14,384 L1.42108547e-14,1.42108547e-14 L384,1.42108547e-14 Z M109.226667,142.933333 L42.666,249.881 L42.666,341.333 L341.333,341.333 L341.333,264.746 L277.333333,200.746667 L211.84,266.24 L109.226667,142.933333 Z M245.333333,85.3333333 C227.660221,85.3333333 213.333333,99.6602213 213.333333,117.333333 C213.333333,135.006445 227.660221,149.333333 245.333333,149.333333 C263.006445,149.333333 277.333333,135.006445 277.333333,117.333333 C277.333333,99.6602213 263.006445,85.3333333 245.333333,85.3333333 Z" id="Combined-Shape"> </path> </g> </g> </g>
</svg>